<svg width="14" height="15" viewBox="0 0 14 15" fill="none" xmlns="http://www.w3.org/2000/svg">
<path d="M10.0625 8.37073C10.0625 8.20667 9.89844 8.0426 9.73438 8.0426H7.65625V5.96448C7.65625 5.80042 7.49219 5.63635 7.32812 5.63635H6.67188C6.48047 5.63635 6.34375 5.80042 6.34375 5.96448V8.0426H4.26562C4.07422 8.0426 3.9375 8.20667 3.9375 8.37073V9.02698C3.9375 9.21838 4.07422 9.3551 4.26562 9.3551H6.34375V11.4332C6.34375 11.6246 6.48047 11.7614 6.67188 11.7614H7.32812C7.49219 11.7614 7.65625 11.6246 7.65625 11.4332V9.3551H9.73438C9.89844 9.3551 10.0625 9.21838 10.0625 9.02698V8.37073ZM13.125 3.44885C13.125 2.73792 12.5234 2.13635 11.8125 2.13635H10.5V0.714478C10.5 0.550415 10.3359 0.386353 10.1719 0.386353H9.07812C8.88672 0.386353 8.75 0.550415 8.75 0.714478V2.13635H5.25V0.714478C5.25 0.550415 5.08594 0.386353 4.92188 0.386353H3.82812C3.63672 0.386353 3.5 0.550415 3.5 0.714478V2.13635H2.1875C1.44922 2.13635 0.875 2.73792 0.875 3.44885V13.0739C0.875 13.8121 1.44922 14.3864 2.1875 14.3864H11.8125C12.5234 14.3864 13.125 13.8121 13.125 13.0739V3.44885ZM11.8125 12.9098C11.8125 13.0192 11.7305 13.0739 11.6484 13.0739H2.35156C2.24219 13.0739 2.1875 13.0192 2.1875 12.9098V4.76135H11.8125V12.9098Z" fill="#FFA556"/>
</svg>
