<svg width="14" height="13" viewBox="0 0 14 13" fill="none" xmlns="http://www.w3.org/2000/svg">
<path d="M7.13672 12.7109L7.68359 12.1914C7.82031 12.0547 7.82031 11.8359 7.68359 11.7266L3.44531 7.46094H12.7969C12.9609 7.46094 13.125 7.32422 13.125 7.13281V6.36719C13.125 6.20312 12.9609 6.03906 12.7969 6.03906H3.44531L7.68359 1.80078C7.82031 1.69141 7.82031 1.47266 7.68359 1.33594L7.13672 0.816406C7.02734 0.679688 6.80859 0.679688 6.67188 0.816406L0.957031 6.53125C0.820312 6.66797 0.820312 6.85938 0.957031 6.99609L6.67188 12.7109C6.80859 12.8477 7.02734 12.8477 7.13672 12.7109Z" fill="#F27633"/>
</svg>
