<svg width="14" height="15" viewBox="0 0 14 15" fill="none" xmlns="http://www.w3.org/2000/svg">
<path d="M13.0039 10.6758C12.4844 10.1016 11.4727 9.25391 11.4727 6.4375C11.4727 4.33203 9.99609 2.63672 7.97266 2.19922V1.625C7.97266 1.16016 7.58984 0.75 7.125 0.75C6.63281 0.75 6.25 1.16016 6.25 1.625V2.19922C4.22656 2.63672 2.75 4.33203 2.75 6.4375C2.75 9.25391 1.73828 10.1016 1.21875 10.6758C1.05469 10.8398 0.972656 11.0586 1 11.25C1 11.7148 1.32812 12.125 1.875 12.125H12.3477C12.8945 12.125 13.2227 11.7148 13.25 11.25C13.25 11.0586 13.168 10.8398 13.0039 10.6758ZM2.83203 10.8125C3.40625 10.0742 4.03516 8.78906 4.0625 6.46484C4.0625 6.46484 4.0625 6.46484 4.0625 6.4375C4.0625 4.76953 5.42969 3.375 7.125 3.375C8.79297 3.375 10.1875 4.76953 10.1875 6.4375C10.1875 6.46484 10.1602 6.46484 10.1602 6.46484C10.1875 8.78906 10.8164 10.0742 11.3906 10.8125H2.83203ZM7.125 14.75C8.08203 14.75 8.84766 13.9844 8.84766 13H5.375C5.375 13.9844 6.14062 14.75 7.125 14.75Z" fill="#F0F2FA"/>
</svg>
