<svg width="14" height="15" viewBox="0 0 14 15" fill="none" xmlns="http://www.w3.org/2000/svg">
<path d="M11.8125 2.5H10.5V1.07812C10.5 0.914062 10.3359 0.75 10.1719 0.75H9.07812C8.88672 0.75 8.75 0.914062 8.75 1.07812V2.5H5.25V1.07812C5.25 0.914062 5.08594 0.75 4.92188 0.75H3.82812C3.63672 0.75 3.5 0.914062 3.5 1.07812V2.5H2.1875C1.44922 2.5 0.875 3.10156 0.875 3.8125V13.4375C0.875 14.1758 1.44922 14.75 2.1875 14.75H11.8125C12.5234 14.75 13.125 14.1758 13.125 13.4375V3.8125C13.125 3.10156 12.5234 2.5 11.8125 2.5ZM11.6484 13.4375H2.35156C2.24219 13.4375 2.1875 13.3828 2.1875 13.2734V5.125H11.8125V13.2734C11.8125 13.3828 11.7305 13.4375 11.6484 13.4375Z" fill="#F27633"/>
</svg>
