<svg width="16" height="15" viewBox="0 0 16 15" fill="none" xmlns="http://www.w3.org/2000/svg">
<path d="M14.125 5.125H11.5V2.5C11.5 1.54297 10.707 0.75 9.75 0.75H1.875C0.890625 0.75 0.125 1.54297 0.125 2.5V6.875C0.125 7.85938 0.890625 8.625 1.875 8.625H2.75V10.0469C2.75 10.2656 2.88672 10.375 3.07812 10.375C3.13281 10.375 3.1875 10.375 3.26953 10.3203L5.375 9.14453V11.25C5.375 12.2344 6.14062 13 7.125 13H9.75L12.7031 14.6953C12.7852 14.75 12.8398 14.75 12.9219 14.75C13.0859 14.75 13.25 14.6406 13.25 14.4219V13H14.125C15.082 13 15.875 12.2344 15.875 11.25V6.875C15.875 5.91797 15.082 5.125 14.125 5.125ZM2.75 7.3125H1.875C1.62891 7.3125 1.4375 7.12109 1.4375 6.875V2.5C1.4375 2.28125 1.62891 2.0625 1.875 2.0625H9.75C9.96875 2.0625 10.1875 2.28125 10.1875 2.5V6.875C10.1875 7.12109 9.96875 7.3125 9.75 7.3125H5.89453L5.59375 7.50391L4.0625 8.37891V7.3125H2.75ZM14.5625 11.25C14.5625 11.4961 14.3438 11.6875 14.125 11.6875H11.9375V12.7539L10.3789 11.8789L10.0781 11.6875H7.125C6.87891 11.6875 6.6875 11.4961 6.6875 11.25V8.625H9.75C10.707 8.625 11.5 7.85938 11.5 6.875V6.4375H14.125C14.3438 6.4375 14.5625 6.65625 14.5625 6.875V11.25Z" fill="#B7BFD6"/>
</svg>
