<svg width="14" height="15" viewBox="0 0 14 15" fill="none" xmlns="http://www.w3.org/2000/svg">
<path d="M7 0.96875C3.25391 0.96875 0.21875 4.03125 0.21875 7.75C0.21875 11.4961 3.25391 14.5312 7 14.5312C10.7188 14.5312 13.7812 11.4961 13.7812 7.75C13.7812 4.03125 10.7188 0.96875 7 0.96875ZM7 13.2188C3.96484 13.2188 1.53125 10.7852 1.53125 7.75C1.53125 4.74219 3.96484 2.28125 7 2.28125C10.0078 2.28125 12.4688 4.74219 12.4688 7.75C12.4688 10.7852 10.0078 13.2188 7 13.2188ZM9.92578 6.24609C9.92578 4.87891 8.47656 3.8125 7.13672 3.8125C5.85156 3.8125 5.03125 4.35938 4.40234 5.31641C4.29297 5.45312 4.32031 5.64453 4.45703 5.75391L5.22266 6.32812C5.35938 6.4375 5.57812 6.41016 5.6875 6.27344C6.09766 5.75391 6.39844 5.45312 7.02734 5.45312C7.51953 5.45312 8.12109 5.75391 8.12109 6.24609C8.12109 6.60156 7.82031 6.76562 7.32812 7.03906C6.78125 7.36719 6.04297 7.75 6.04297 8.73438V8.95312C6.04297 9.14453 6.17969 9.28125 6.37109 9.28125H7.60156C7.79297 9.28125 7.92969 9.14453 7.92969 8.95312V8.78906C7.92969 8.10547 9.92578 8.07812 9.92578 6.24609ZM8.14844 10.8125C8.14844 10.1836 7.62891 9.66406 7 9.66406C6.34375 9.66406 5.85156 10.1836 5.85156 10.8125C5.85156 11.4688 6.34375 11.9609 7 11.9609C7.62891 11.9609 8.14844 11.4688 8.14844 10.8125Z" fill="#F0F2FA"/>
</svg>
