<svg width="16" height="15" viewBox="0 0 16 15" fill="none" xmlns="http://www.w3.org/2000/svg">
<path d="M15.7109 6.65625L8.95703 1.10547C8.73828 0.914062 8.30078 0.75 7.97266 0.75C7.67188 0.75 7.23438 0.914062 7.01562 1.10547L0.261719 6.65625C0.179688 6.73828 0.125 6.875 0.125 6.98438C0.125 7.06641 0.152344 7.20312 0.207031 7.25781L0.507812 7.61328C0.5625 7.69531 0.726562 7.75 0.835938 7.75C0.917969 7.75 1.05469 7.72266 1.10938 7.66797L1.875 7.03906V8.625H1.84766V14.3125C1.84766 14.5586 2.03906 14.75 2.28516 14.75H13.6875C13.9062 14.75 14.125 14.5586 14.125 14.3125V7.03906L14.8633 7.66797C14.918 7.72266 15.0547 7.77734 15.1367 7.77734C15.2461 7.77734 15.4102 7.69531 15.4922 7.61328L15.7656 7.25781C15.8203 7.20312 15.875 7.06641 15.875 6.98438C15.875 6.875 15.793 6.73828 15.7109 6.65625ZM12.8125 6.875H12.7852V13.4375H9.75V9.5C9.75 9.03516 9.33984 8.625 8.875 8.625H7.125C6.63281 8.625 6.25 9.03516 6.25 9.5V13.4375H3.16016V6.08203H3.1875V5.97266L8 2.00781L12.8125 5.97266V6.875Z" fill="#CBCBCB"/>
</svg>
