<svg width="12" height="15" viewBox="0 0 12 15" fill="none" xmlns="http://www.w3.org/2000/svg">
<path d="M6 0.75C3.07422 0.75 0.75 3.12891 0.75 6C0.75 7.96875 1.37891 8.57031 4.87891 14.1484C5.39844 14.9688 6.57422 14.9688 7.09375 14.1484C10.5938 8.57031 11.25 7.96875 11.25 6C11.25 3.10156 8.87109 0.75 6 0.75ZM6 13.4375C2.5 7.85938 2.0625 7.50391 2.0625 6C2.0625 3.83984 3.8125 2.0625 6 2.0625C8.16016 2.0625 9.9375 3.83984 9.9375 6C9.9375 7.50391 9.5 7.80469 6 13.4375ZM3.8125 6C3.8125 7.23047 4.76953 8.1875 6 8.1875C7.20312 8.1875 8.1875 7.23047 8.1875 6C8.1875 4.79688 7.20312 3.8125 6 3.8125C4.76953 3.8125 3.8125 4.79688 3.8125 6Z" fill="#F27633"/>
</svg>
