<svg width="14" height="15" viewBox="0 0 14 15" fill="none" xmlns="http://www.w3.org/2000/svg">
<path d="M12.3594 7.23047L13.2344 6.73828C13.4805 6.60156 13.6172 6.30078 13.5352 6C13.2344 4.85156 12.6055 3.8125 11.7852 2.96484C11.5664 2.77344 11.2383 2.71875 10.9922 2.85547L10.1172 3.375C9.89844 3.21094 9.48828 2.96484 9.21484 2.85547V1.84375C9.21484 1.57031 8.99609 1.26953 8.72266 1.21484C7.60156 0.914062 6.37109 0.914062 5.25 1.21484C4.94922 1.29688 4.75781 1.54297 4.75781 1.84375V2.85547C4.48438 2.96484 4.07422 3.21094 3.85547 3.375L2.98047 2.85547C2.73438 2.71875 2.40625 2.77344 2.1875 2.96484C1.36719 3.8125 0.738281 4.85156 0.4375 6C0.355469 6.30078 0.492188 6.60156 0.738281 6.73828L1.61328 7.23047C1.58594 7.39453 1.58594 7.61328 1.58594 7.75C1.58594 7.91406 1.58594 8.13281 1.61328 8.26953L0.738281 8.78906C0.492188 8.92578 0.355469 9.22656 0.4375 9.52734C0.738281 10.6758 1.36719 11.7148 2.1875 12.5625C2.40625 12.7539 2.73438 12.8086 2.98047 12.6719L3.85547 12.1523C4.07422 12.3164 4.48438 12.5625 4.75781 12.6719V13.6836C4.75781 13.957 4.97656 14.2578 5.25 14.3125C6.37109 14.6133 7.60156 14.6133 8.72266 14.3125C9.02344 14.2305 9.21484 13.9844 9.21484 13.6836V12.6719C9.48828 12.5625 9.89844 12.3164 10.1172 12.1523L10.9922 12.6719C11.2383 12.8086 11.5664 12.7539 11.7852 12.5625C12.6055 11.7148 13.2344 10.6758 13.5352 9.52734C13.6172 9.22656 13.4805 8.92578 13.2344 8.78906L12.3594 8.26953C12.3867 7.94141 12.3867 7.58594 12.3594 7.23047ZM10.9102 8.98047L12.1133 9.66406C11.9492 10.1562 11.5117 10.8672 11.1836 11.25L9.98047 10.5664C9.10547 11.3047 8.99609 11.3867 7.90234 11.7695V13.1641C7.65625 13.1914 7.24609 13.2461 7 13.2461C6.72656 13.2461 6.31641 13.1914 6.07031 13.1641V11.7695C4.97656 11.3867 4.83984 11.3047 3.99219 10.5664L2.78906 11.25C2.46094 10.8672 2.02344 10.1562 1.85938 9.66406L3.0625 8.98047C2.84375 7.83203 2.84375 7.69531 3.0625 6.54688L1.85938 5.86328C2.07812 5.28906 2.37891 4.74219 2.78906 4.27734L3.99219 4.96094C4.86719 4.22266 4.97656 4.14062 6.07031 3.75781V2.36328C6.31641 2.33594 6.72656 2.28125 7 2.28125C7.24609 2.28125 7.65625 2.33594 7.90234 2.36328V3.75781C8.99609 4.14062 9.13281 4.22266 9.98047 4.96094L11.1836 4.27734C11.5117 4.66016 11.9492 5.37109 12.1133 5.86328L10.9102 6.54688C11.1289 7.69531 11.1289 7.83203 10.9102 8.98047ZM7 5.125C5.55078 5.125 4.375 6.32812 4.375 7.75C4.375 9.19922 5.55078 10.375 7 10.375C8.42188 10.375 9.625 9.19922 9.625 7.75C9.625 6.32812 8.42188 5.125 7 5.125ZM7 9.0625C6.26172 9.0625 5.6875 8.48828 5.6875 7.75C5.6875 7.03906 6.26172 6.4375 7 6.4375C7.71094 6.4375 8.3125 7.03906 8.3125 7.75C8.3125 8.48828 7.71094 9.0625 7 9.0625Z" fill="#F0F2FA"/>
</svg>
