<svg width="14" height="13" viewBox="0 0 14 13" fill="none" xmlns="http://www.w3.org/2000/svg">
<path d="M6.125 1.91016C6.125 1.19922 5.52344 0.597656 4.8125 0.597656H2.1875C1.44922 0.597656 0.875 1.19922 0.875 1.91016V11.5352C0.875 12.2734 1.44922 12.8477 2.1875 12.8477H4.8125C5.52344 12.8477 6.125 12.2734 6.125 11.5352V1.91016ZM4.8125 11.3711C4.8125 11.4805 4.73047 11.5352 4.64844 11.5352H2.35156C2.24219 11.5352 2.1875 11.4805 2.1875 11.3711V2.07422C2.1875 1.99219 2.24219 1.91016 2.35156 1.91016H4.64844C4.73047 1.91016 4.8125 1.99219 4.8125 2.07422V11.3711ZM13.125 1.91016C13.125 1.19922 12.5234 0.597656 11.8125 0.597656H9.1875C8.44922 0.597656 7.875 1.19922 7.875 1.91016V11.5352C7.875 12.2734 8.44922 12.8477 9.1875 12.8477H11.8125C12.5234 12.8477 13.125 12.2734 13.125 11.5352V1.91016ZM11.8125 11.3711C11.8125 11.4805 11.7305 11.5352 11.6484 11.5352H9.35156C9.24219 11.5352 9.1875 11.4805 9.1875 11.3711V2.07422C9.1875 1.99219 9.24219 1.91016 9.35156 1.91016H11.6484C11.7305 1.91016 11.8125 1.99219 11.8125 2.07422V11.3711Z" fill="#F27633"/>
</svg>
