<svg width="14" height="15" viewBox="0 0 14 15" fill="none" xmlns="http://www.w3.org/2000/svg">
<path d="M8.3125 10.375H7.65625V1.1875C7.65625 0.96875 7.4375 0.75 7.21875 0.75H6.78125C6.53516 0.75 6.34375 0.96875 6.34375 1.1875V10.375H5.6875C5.44141 10.375 5.25 10.5938 5.25 10.8125V11.6875C5.25 11.9336 5.44141 12.125 5.6875 12.125H6.34375V14.3125C6.34375 14.5586 6.53516 14.75 6.78125 14.75H7.21875C7.4375 14.75 7.65625 14.5586 7.65625 14.3125V12.125H8.3125C8.53125 12.125 8.75 11.9336 8.75 11.6875V10.8125C8.75 10.5938 8.53125 10.375 8.3125 10.375ZM3.9375 3.375H3.28125V1.1875C3.28125 0.96875 3.0625 0.75 2.84375 0.75H2.40625C2.16016 0.75 1.96875 0.96875 1.96875 1.1875V3.375H1.3125C1.06641 3.375 0.875 3.59375 0.875 3.8125V4.6875C0.875 4.93359 1.06641 5.125 1.3125 5.125H1.96875V14.3125C1.96875 14.5586 2.16016 14.75 2.40625 14.75H2.84375C3.0625 14.75 3.28125 14.5586 3.28125 14.3125V5.125H3.9375C4.15625 5.125 4.375 4.93359 4.375 4.6875V3.8125C4.375 3.59375 4.15625 3.375 3.9375 3.375ZM12.6875 6.875H12.0312V1.1875C12.0312 0.96875 11.8125 0.75 11.5938 0.75H11.1562C10.9102 0.75 10.7188 0.96875 10.7188 1.1875V6.875H10.0625C9.81641 6.875 9.625 7.09375 9.625 7.3125V8.1875C9.625 8.43359 9.81641 8.625 10.0625 8.625H10.7188V14.3125C10.7188 14.5586 10.9102 14.75 11.1562 14.75H11.5938C11.8125 14.75 12.0312 14.5586 12.0312 14.3125V8.625H12.6875C12.9062 8.625 13.125 8.43359 13.125 8.1875V7.3125C13.125 7.09375 12.9062 6.875 12.6875 6.875Z" fill="#F27633"/>
</svg>
