<svg width="17" height="15" viewBox="0 0 17 15" fill="none" xmlns="http://www.w3.org/2000/svg">
<path opacity="0.5" d="M7.78125 6.35547L7.97266 9.41797C7.97266 9.60938 8.10938 9.71875 8.30078 9.71875H9.42188C9.58594 9.71875 9.75 9.58203 9.75 9.41797L9.94141 6.35547C9.94141 6.16406 9.80469 6 9.61328 6H8.10938C7.91797 6 7.78125 6.16406 7.78125 6.35547ZM10.0234 11.25C10.0234 10.6211 9.50391 10.1016 8.875 10.1016C8.21875 10.1016 7.72656 10.6211 7.72656 11.25C7.72656 11.9062 8.21875 12.3984 8.875 12.3984C9.50391 12.3984 10.0234 11.9062 10.0234 11.25ZM9.99609 1.40625C9.50391 0.558594 8.21875 0.53125 7.72656 1.40625L1.16406 12.8086C0.671875 13.6562 1.30078 14.75 2.3125 14.75H15.4102C16.4219 14.75 17.0508 13.6836 16.5586 12.8086L9.99609 1.40625ZM2.44922 13.2188L8.71094 2.33594C8.79297 2.22656 8.92969 2.22656 9.01172 2.33594L15.2734 13.2188C15.3555 13.3281 15.2734 13.4375 15.1367 13.4375H2.58594C2.44922 13.4375 2.36719 13.3281 2.44922 13.2188Z" fill="#FF7272"/>
</svg>
